%TF.GenerationSoftware,KiCad,Pcbnew,8.0.5*%
%TF.CreationDate,2024-09-09T20:15:40+02:00*%
%TF.ProjectId,QuinLED-ESP32-Lux,5175696e-4c45-4442-9d45-535033322d4c,rev?*%
%TF.SameCoordinates,Original*%
%TF.FileFunction,Drillmap*%
%TF.FilePolarity,Positive*%
%FSLAX45Y45*%
G04 Gerber Fmt 4.5, Leading zero omitted, Abs format (unit mm)*
G04 Created by KiCad (PCBNEW 8.0.5) date 2024-09-09 20:15:40*
%MOMM*%
%LPD*%
G01*
G04 APERTURE LIST*
%ADD10C,0.100000*%
%ADD11C,0.200000*%
%ADD12C,0.130000*%
G04 APERTURE END LIST*
D10*
X12446000Y-6150076D02*
X15946000Y-6150076D01*
X15946000Y-10096000D01*
X12446000Y-10096000D01*
X12446000Y-6150076D01*
D11*
D10*
X12754079Y-7814053D02*
X12854079Y-7914053D01*
X12854079Y-7814053D02*
X12754079Y-7914053D01*
X12754079Y-8068053D02*
X12854079Y-8168053D01*
X12854079Y-8068053D02*
X12754079Y-8168053D01*
X12754079Y-8322053D02*
X12854079Y-8422053D01*
X12854079Y-8322053D02*
X12754079Y-8422053D01*
X12754079Y-8576053D02*
X12854079Y-8676053D01*
X12854079Y-8576053D02*
X12754079Y-8676053D01*
X12754079Y-8830053D02*
X12854079Y-8930053D01*
X12854079Y-8830053D02*
X12754079Y-8930053D01*
X12754079Y-9084053D02*
X12854079Y-9184053D01*
X12854079Y-9084053D02*
X12754079Y-9184053D01*
X12754079Y-9338053D02*
X12854079Y-9438053D01*
X12854079Y-9338053D02*
X12754079Y-9438053D01*
X12754079Y-9592053D02*
X12854079Y-9692053D01*
X12854079Y-9592053D02*
X12754079Y-9692053D01*
X12754079Y-9846053D02*
X12854079Y-9946053D01*
X12854079Y-9846053D02*
X12754079Y-9946053D01*
X13008079Y-7814053D02*
X13108079Y-7914053D01*
X13108079Y-7814053D02*
X13008079Y-7914053D01*
X13008079Y-8068053D02*
X13108079Y-8168053D01*
X13108079Y-8068053D02*
X13008079Y-8168053D01*
X13008079Y-8322053D02*
X13108079Y-8422053D01*
X13108079Y-8322053D02*
X13008079Y-8422053D01*
X13008079Y-8576053D02*
X13108079Y-8676053D01*
X13108079Y-8576053D02*
X13008079Y-8676053D01*
X13008079Y-8830053D02*
X13108079Y-8930053D01*
X13108079Y-8830053D02*
X13008079Y-8930053D01*
X13008079Y-9084053D02*
X13108079Y-9184053D01*
X13108079Y-9084053D02*
X13008079Y-9184053D01*
X13008079Y-9338053D02*
X13108079Y-9438053D01*
X13108079Y-9338053D02*
X13008079Y-9438053D01*
X13008079Y-9592053D02*
X13108079Y-9692053D01*
X13108079Y-9592053D02*
X13008079Y-9692053D01*
X13008079Y-9846053D02*
X13108079Y-9946053D01*
X13108079Y-9846053D02*
X13008079Y-9946053D01*
X15294079Y-7814053D02*
X15394079Y-7914053D01*
X15394079Y-7814053D02*
X15294079Y-7914053D01*
X15294079Y-8068053D02*
X15394079Y-8168053D01*
X15394079Y-8068053D02*
X15294079Y-8168053D01*
X15294079Y-8322053D02*
X15394079Y-8422053D01*
X15394079Y-8322053D02*
X15294079Y-8422053D01*
X15294079Y-8576053D02*
X15394079Y-8676053D01*
X15394079Y-8576053D02*
X15294079Y-8676053D01*
X15294079Y-8830053D02*
X15394079Y-8930053D01*
X15394079Y-8830053D02*
X15294079Y-8930053D01*
X15294079Y-9084053D02*
X15394079Y-9184053D01*
X15394079Y-9084053D02*
X15294079Y-9184053D01*
X15294079Y-9338053D02*
X15394079Y-9438053D01*
X15394079Y-9338053D02*
X15294079Y-9438053D01*
X15294079Y-9592053D02*
X15394079Y-9692053D01*
X15394079Y-9592053D02*
X15294079Y-9692053D01*
X15294079Y-9846053D02*
X15394079Y-9946053D01*
X15394079Y-9846053D02*
X15294079Y-9946053D01*
X15548079Y-7814053D02*
X15648079Y-7914053D01*
X15648079Y-7814053D02*
X15548079Y-7914053D01*
X15548079Y-8068053D02*
X15648079Y-8168053D01*
X15648079Y-8068053D02*
X15548079Y-8168053D01*
X15548079Y-8322053D02*
X15648079Y-8422053D01*
X15648079Y-8322053D02*
X15548079Y-8422053D01*
X15548079Y-8576053D02*
X15648079Y-8676053D01*
X15648079Y-8576053D02*
X15548079Y-8676053D01*
X15548079Y-8830053D02*
X15648079Y-8930053D01*
X15648079Y-8830053D02*
X15548079Y-8930053D01*
X15548079Y-9084053D02*
X15648079Y-9184053D01*
X15648079Y-9084053D02*
X15548079Y-9184053D01*
X15548079Y-9338053D02*
X15648079Y-9438053D01*
X15648079Y-9338053D02*
X15548079Y-9438053D01*
X15548079Y-9592053D02*
X15648079Y-9692053D01*
X15648079Y-9592053D02*
X15548079Y-9692053D01*
X15548079Y-9846053D02*
X15648079Y-9946053D01*
X15648079Y-9846053D02*
X15548079Y-9946053D01*
D12*
X13481101Y-6609142D02*
G75*
G02*
X13351101Y-6609142I-65000J0D01*
G01*
X13351101Y-6609142D02*
G75*
G02*
X13481101Y-6609142I65000J0D01*
G01*
X13981101Y-6609142D02*
G75*
G02*
X13851101Y-6609142I-65000J0D01*
G01*
X13851101Y-6609142D02*
G75*
G02*
X13981101Y-6609142I65000J0D01*
G01*
X14481101Y-6609142D02*
G75*
G02*
X14351101Y-6609142I-65000J0D01*
G01*
X14351101Y-6609142D02*
G75*
G02*
X14481101Y-6609142I65000J0D01*
G01*
X14981101Y-6609142D02*
G75*
G02*
X14851101Y-6609142I-65000J0D01*
G01*
X14851101Y-6609142D02*
G75*
G02*
X14981101Y-6609142I65000J0D01*
G01*
D11*
X12701777Y-10412484D02*
X12701777Y-10212484D01*
X12701777Y-10212484D02*
X12749396Y-10212484D01*
X12749396Y-10212484D02*
X12777967Y-10222008D01*
X12777967Y-10222008D02*
X12797015Y-10241055D01*
X12797015Y-10241055D02*
X12806539Y-10260103D01*
X12806539Y-10260103D02*
X12816062Y-10298198D01*
X12816062Y-10298198D02*
X12816062Y-10326770D01*
X12816062Y-10326770D02*
X12806539Y-10364865D01*
X12806539Y-10364865D02*
X12797015Y-10383912D01*
X12797015Y-10383912D02*
X12777967Y-10402960D01*
X12777967Y-10402960D02*
X12749396Y-10412484D01*
X12749396Y-10412484D02*
X12701777Y-10412484D01*
X12901777Y-10412484D02*
X12901777Y-10279150D01*
X12901777Y-10317246D02*
X12911301Y-10298198D01*
X12911301Y-10298198D02*
X12920824Y-10288674D01*
X12920824Y-10288674D02*
X12939872Y-10279150D01*
X12939872Y-10279150D02*
X12958920Y-10279150D01*
X13025586Y-10412484D02*
X13025586Y-10279150D01*
X13025586Y-10212484D02*
X13016062Y-10222008D01*
X13016062Y-10222008D02*
X13025586Y-10231531D01*
X13025586Y-10231531D02*
X13035110Y-10222008D01*
X13035110Y-10222008D02*
X13025586Y-10212484D01*
X13025586Y-10212484D02*
X13025586Y-10231531D01*
X13149396Y-10412484D02*
X13130348Y-10402960D01*
X13130348Y-10402960D02*
X13120824Y-10383912D01*
X13120824Y-10383912D02*
X13120824Y-10212484D01*
X13254158Y-10412484D02*
X13235110Y-10402960D01*
X13235110Y-10402960D02*
X13225586Y-10383912D01*
X13225586Y-10383912D02*
X13225586Y-10212484D01*
X13482729Y-10412484D02*
X13482729Y-10212484D01*
X13482729Y-10212484D02*
X13549396Y-10355341D01*
X13549396Y-10355341D02*
X13616062Y-10212484D01*
X13616062Y-10212484D02*
X13616062Y-10412484D01*
X13797015Y-10412484D02*
X13797015Y-10307722D01*
X13797015Y-10307722D02*
X13787491Y-10288674D01*
X13787491Y-10288674D02*
X13768443Y-10279150D01*
X13768443Y-10279150D02*
X13730348Y-10279150D01*
X13730348Y-10279150D02*
X13711301Y-10288674D01*
X13797015Y-10402960D02*
X13777967Y-10412484D01*
X13777967Y-10412484D02*
X13730348Y-10412484D01*
X13730348Y-10412484D02*
X13711301Y-10402960D01*
X13711301Y-10402960D02*
X13701777Y-10383912D01*
X13701777Y-10383912D02*
X13701777Y-10364865D01*
X13701777Y-10364865D02*
X13711301Y-10345817D01*
X13711301Y-10345817D02*
X13730348Y-10336293D01*
X13730348Y-10336293D02*
X13777967Y-10336293D01*
X13777967Y-10336293D02*
X13797015Y-10326770D01*
X13892253Y-10279150D02*
X13892253Y-10479150D01*
X13892253Y-10288674D02*
X13911301Y-10279150D01*
X13911301Y-10279150D02*
X13949396Y-10279150D01*
X13949396Y-10279150D02*
X13968443Y-10288674D01*
X13968443Y-10288674D02*
X13977967Y-10298198D01*
X13977967Y-10298198D02*
X13987491Y-10317246D01*
X13987491Y-10317246D02*
X13987491Y-10374389D01*
X13987491Y-10374389D02*
X13977967Y-10393436D01*
X13977967Y-10393436D02*
X13968443Y-10402960D01*
X13968443Y-10402960D02*
X13949396Y-10412484D01*
X13949396Y-10412484D02*
X13911301Y-10412484D01*
X13911301Y-10412484D02*
X13892253Y-10402960D01*
X14073205Y-10393436D02*
X14082729Y-10402960D01*
X14082729Y-10402960D02*
X14073205Y-10412484D01*
X14073205Y-10412484D02*
X14063682Y-10402960D01*
X14063682Y-10402960D02*
X14073205Y-10393436D01*
X14073205Y-10393436D02*
X14073205Y-10412484D01*
X14073205Y-10288674D02*
X14082729Y-10298198D01*
X14082729Y-10298198D02*
X14073205Y-10307722D01*
X14073205Y-10307722D02*
X14063682Y-10298198D01*
X14063682Y-10298198D02*
X14073205Y-10288674D01*
X14073205Y-10288674D02*
X14073205Y-10307722D01*
D10*
X12341000Y-10691000D02*
X12441000Y-10791000D01*
X12441000Y-10691000D02*
X12341000Y-10791000D01*
D11*
X12806539Y-10832484D02*
X12692253Y-10832484D01*
X12749396Y-10832484D02*
X12749396Y-10632484D01*
X12749396Y-10632484D02*
X12730348Y-10661055D01*
X12730348Y-10661055D02*
X12711301Y-10680103D01*
X12711301Y-10680103D02*
X12692253Y-10689627D01*
X12892253Y-10813436D02*
X12901777Y-10822960D01*
X12901777Y-10822960D02*
X12892253Y-10832484D01*
X12892253Y-10832484D02*
X12882729Y-10822960D01*
X12882729Y-10822960D02*
X12892253Y-10813436D01*
X12892253Y-10813436D02*
X12892253Y-10832484D01*
X13025586Y-10632484D02*
X13044634Y-10632484D01*
X13044634Y-10632484D02*
X13063682Y-10642008D01*
X13063682Y-10642008D02*
X13073205Y-10651531D01*
X13073205Y-10651531D02*
X13082729Y-10670579D01*
X13082729Y-10670579D02*
X13092253Y-10708674D01*
X13092253Y-10708674D02*
X13092253Y-10756293D01*
X13092253Y-10756293D02*
X13082729Y-10794389D01*
X13082729Y-10794389D02*
X13073205Y-10813436D01*
X13073205Y-10813436D02*
X13063682Y-10822960D01*
X13063682Y-10822960D02*
X13044634Y-10832484D01*
X13044634Y-10832484D02*
X13025586Y-10832484D01*
X13025586Y-10832484D02*
X13006539Y-10822960D01*
X13006539Y-10822960D02*
X12997015Y-10813436D01*
X12997015Y-10813436D02*
X12987491Y-10794389D01*
X12987491Y-10794389D02*
X12977967Y-10756293D01*
X12977967Y-10756293D02*
X12977967Y-10708674D01*
X12977967Y-10708674D02*
X12987491Y-10670579D01*
X12987491Y-10670579D02*
X12997015Y-10651531D01*
X12997015Y-10651531D02*
X13006539Y-10642008D01*
X13006539Y-10642008D02*
X13025586Y-10632484D01*
X13216062Y-10632484D02*
X13235110Y-10632484D01*
X13235110Y-10632484D02*
X13254158Y-10642008D01*
X13254158Y-10642008D02*
X13263682Y-10651531D01*
X13263682Y-10651531D02*
X13273205Y-10670579D01*
X13273205Y-10670579D02*
X13282729Y-10708674D01*
X13282729Y-10708674D02*
X13282729Y-10756293D01*
X13282729Y-10756293D02*
X13273205Y-10794389D01*
X13273205Y-10794389D02*
X13263682Y-10813436D01*
X13263682Y-10813436D02*
X13254158Y-10822960D01*
X13254158Y-10822960D02*
X13235110Y-10832484D01*
X13235110Y-10832484D02*
X13216062Y-10832484D01*
X13216062Y-10832484D02*
X13197015Y-10822960D01*
X13197015Y-10822960D02*
X13187491Y-10813436D01*
X13187491Y-10813436D02*
X13177967Y-10794389D01*
X13177967Y-10794389D02*
X13168443Y-10756293D01*
X13168443Y-10756293D02*
X13168443Y-10708674D01*
X13168443Y-10708674D02*
X13177967Y-10670579D01*
X13177967Y-10670579D02*
X13187491Y-10651531D01*
X13187491Y-10651531D02*
X13197015Y-10642008D01*
X13197015Y-10642008D02*
X13216062Y-10632484D01*
X13406539Y-10632484D02*
X13425586Y-10632484D01*
X13425586Y-10632484D02*
X13444634Y-10642008D01*
X13444634Y-10642008D02*
X13454158Y-10651531D01*
X13454158Y-10651531D02*
X13463682Y-10670579D01*
X13463682Y-10670579D02*
X13473205Y-10708674D01*
X13473205Y-10708674D02*
X13473205Y-10756293D01*
X13473205Y-10756293D02*
X13463682Y-10794389D01*
X13463682Y-10794389D02*
X13454158Y-10813436D01*
X13454158Y-10813436D02*
X13444634Y-10822960D01*
X13444634Y-10822960D02*
X13425586Y-10832484D01*
X13425586Y-10832484D02*
X13406539Y-10832484D01*
X13406539Y-10832484D02*
X13387491Y-10822960D01*
X13387491Y-10822960D02*
X13377967Y-10813436D01*
X13377967Y-10813436D02*
X13368443Y-10794389D01*
X13368443Y-10794389D02*
X13358920Y-10756293D01*
X13358920Y-10756293D02*
X13358920Y-10708674D01*
X13358920Y-10708674D02*
X13368443Y-10670579D01*
X13368443Y-10670579D02*
X13377967Y-10651531D01*
X13377967Y-10651531D02*
X13387491Y-10642008D01*
X13387491Y-10642008D02*
X13406539Y-10632484D01*
X13558920Y-10832484D02*
X13558920Y-10699150D01*
X13558920Y-10718198D02*
X13568443Y-10708674D01*
X13568443Y-10708674D02*
X13587491Y-10699150D01*
X13587491Y-10699150D02*
X13616063Y-10699150D01*
X13616063Y-10699150D02*
X13635110Y-10708674D01*
X13635110Y-10708674D02*
X13644634Y-10727722D01*
X13644634Y-10727722D02*
X13644634Y-10832484D01*
X13644634Y-10727722D02*
X13654158Y-10708674D01*
X13654158Y-10708674D02*
X13673205Y-10699150D01*
X13673205Y-10699150D02*
X13701777Y-10699150D01*
X13701777Y-10699150D02*
X13720824Y-10708674D01*
X13720824Y-10708674D02*
X13730348Y-10727722D01*
X13730348Y-10727722D02*
X13730348Y-10832484D01*
X13825586Y-10832484D02*
X13825586Y-10699150D01*
X13825586Y-10718198D02*
X13835110Y-10708674D01*
X13835110Y-10708674D02*
X13854158Y-10699150D01*
X13854158Y-10699150D02*
X13882729Y-10699150D01*
X13882729Y-10699150D02*
X13901777Y-10708674D01*
X13901777Y-10708674D02*
X13911301Y-10727722D01*
X13911301Y-10727722D02*
X13911301Y-10832484D01*
X13911301Y-10727722D02*
X13920824Y-10708674D01*
X13920824Y-10708674D02*
X13939872Y-10699150D01*
X13939872Y-10699150D02*
X13968443Y-10699150D01*
X13968443Y-10699150D02*
X13987491Y-10708674D01*
X13987491Y-10708674D02*
X13997015Y-10727722D01*
X13997015Y-10727722D02*
X13997015Y-10832484D01*
X14387491Y-10622960D02*
X14216063Y-10880103D01*
X14644634Y-10632484D02*
X14663682Y-10632484D01*
X14663682Y-10632484D02*
X14682729Y-10642008D01*
X14682729Y-10642008D02*
X14692253Y-10651531D01*
X14692253Y-10651531D02*
X14701777Y-10670579D01*
X14701777Y-10670579D02*
X14711301Y-10708674D01*
X14711301Y-10708674D02*
X14711301Y-10756293D01*
X14711301Y-10756293D02*
X14701777Y-10794389D01*
X14701777Y-10794389D02*
X14692253Y-10813436D01*
X14692253Y-10813436D02*
X14682729Y-10822960D01*
X14682729Y-10822960D02*
X14663682Y-10832484D01*
X14663682Y-10832484D02*
X14644634Y-10832484D01*
X14644634Y-10832484D02*
X14625586Y-10822960D01*
X14625586Y-10822960D02*
X14616063Y-10813436D01*
X14616063Y-10813436D02*
X14606539Y-10794389D01*
X14606539Y-10794389D02*
X14597015Y-10756293D01*
X14597015Y-10756293D02*
X14597015Y-10708674D01*
X14597015Y-10708674D02*
X14606539Y-10670579D01*
X14606539Y-10670579D02*
X14616063Y-10651531D01*
X14616063Y-10651531D02*
X14625586Y-10642008D01*
X14625586Y-10642008D02*
X14644634Y-10632484D01*
X14797015Y-10813436D02*
X14806539Y-10822960D01*
X14806539Y-10822960D02*
X14797015Y-10832484D01*
X14797015Y-10832484D02*
X14787491Y-10822960D01*
X14787491Y-10822960D02*
X14797015Y-10813436D01*
X14797015Y-10813436D02*
X14797015Y-10832484D01*
X14930348Y-10632484D02*
X14949396Y-10632484D01*
X14949396Y-10632484D02*
X14968444Y-10642008D01*
X14968444Y-10642008D02*
X14977967Y-10651531D01*
X14977967Y-10651531D02*
X14987491Y-10670579D01*
X14987491Y-10670579D02*
X14997015Y-10708674D01*
X14997015Y-10708674D02*
X14997015Y-10756293D01*
X14997015Y-10756293D02*
X14987491Y-10794389D01*
X14987491Y-10794389D02*
X14977967Y-10813436D01*
X14977967Y-10813436D02*
X14968444Y-10822960D01*
X14968444Y-10822960D02*
X14949396Y-10832484D01*
X14949396Y-10832484D02*
X14930348Y-10832484D01*
X14930348Y-10832484D02*
X14911301Y-10822960D01*
X14911301Y-10822960D02*
X14901777Y-10813436D01*
X14901777Y-10813436D02*
X14892253Y-10794389D01*
X14892253Y-10794389D02*
X14882729Y-10756293D01*
X14882729Y-10756293D02*
X14882729Y-10708674D01*
X14882729Y-10708674D02*
X14892253Y-10670579D01*
X14892253Y-10670579D02*
X14901777Y-10651531D01*
X14901777Y-10651531D02*
X14911301Y-10642008D01*
X14911301Y-10642008D02*
X14930348Y-10632484D01*
X15063682Y-10632484D02*
X15187491Y-10632484D01*
X15187491Y-10632484D02*
X15120825Y-10708674D01*
X15120825Y-10708674D02*
X15149396Y-10708674D01*
X15149396Y-10708674D02*
X15168444Y-10718198D01*
X15168444Y-10718198D02*
X15177967Y-10727722D01*
X15177967Y-10727722D02*
X15187491Y-10746770D01*
X15187491Y-10746770D02*
X15187491Y-10794389D01*
X15187491Y-10794389D02*
X15177967Y-10813436D01*
X15177967Y-10813436D02*
X15168444Y-10822960D01*
X15168444Y-10822960D02*
X15149396Y-10832484D01*
X15149396Y-10832484D02*
X15092253Y-10832484D01*
X15092253Y-10832484D02*
X15073206Y-10822960D01*
X15073206Y-10822960D02*
X15063682Y-10813436D01*
X15282729Y-10832484D02*
X15320825Y-10832484D01*
X15320825Y-10832484D02*
X15339872Y-10822960D01*
X15339872Y-10822960D02*
X15349396Y-10813436D01*
X15349396Y-10813436D02*
X15368444Y-10784865D01*
X15368444Y-10784865D02*
X15377967Y-10746770D01*
X15377967Y-10746770D02*
X15377967Y-10670579D01*
X15377967Y-10670579D02*
X15368444Y-10651531D01*
X15368444Y-10651531D02*
X15358920Y-10642008D01*
X15358920Y-10642008D02*
X15339872Y-10632484D01*
X15339872Y-10632484D02*
X15301777Y-10632484D01*
X15301777Y-10632484D02*
X15282729Y-10642008D01*
X15282729Y-10642008D02*
X15273206Y-10651531D01*
X15273206Y-10651531D02*
X15263682Y-10670579D01*
X15263682Y-10670579D02*
X15263682Y-10718198D01*
X15263682Y-10718198D02*
X15273206Y-10737246D01*
X15273206Y-10737246D02*
X15282729Y-10746770D01*
X15282729Y-10746770D02*
X15301777Y-10756293D01*
X15301777Y-10756293D02*
X15339872Y-10756293D01*
X15339872Y-10756293D02*
X15358920Y-10746770D01*
X15358920Y-10746770D02*
X15368444Y-10737246D01*
X15368444Y-10737246D02*
X15377967Y-10718198D01*
X15549396Y-10699150D02*
X15549396Y-10832484D01*
X15501777Y-10622960D02*
X15454158Y-10765817D01*
X15454158Y-10765817D02*
X15577967Y-10765817D01*
X15644634Y-10632484D02*
X15644634Y-10670579D01*
X15720825Y-10632484D02*
X15720825Y-10670579D01*
X16016063Y-10908674D02*
X16006539Y-10899150D01*
X16006539Y-10899150D02*
X15987491Y-10870579D01*
X15987491Y-10870579D02*
X15977968Y-10851531D01*
X15977968Y-10851531D02*
X15968444Y-10822960D01*
X15968444Y-10822960D02*
X15958920Y-10775341D01*
X15958920Y-10775341D02*
X15958920Y-10737246D01*
X15958920Y-10737246D02*
X15968444Y-10689627D01*
X15968444Y-10689627D02*
X15977968Y-10661055D01*
X15977968Y-10661055D02*
X15987491Y-10642008D01*
X15987491Y-10642008D02*
X16006539Y-10613436D01*
X16006539Y-10613436D02*
X16016063Y-10603912D01*
X16073206Y-10632484D02*
X16197015Y-10632484D01*
X16197015Y-10632484D02*
X16130348Y-10708674D01*
X16130348Y-10708674D02*
X16158920Y-10708674D01*
X16158920Y-10708674D02*
X16177968Y-10718198D01*
X16177968Y-10718198D02*
X16187491Y-10727722D01*
X16187491Y-10727722D02*
X16197015Y-10746770D01*
X16197015Y-10746770D02*
X16197015Y-10794389D01*
X16197015Y-10794389D02*
X16187491Y-10813436D01*
X16187491Y-10813436D02*
X16177968Y-10822960D01*
X16177968Y-10822960D02*
X16158920Y-10832484D01*
X16158920Y-10832484D02*
X16101777Y-10832484D01*
X16101777Y-10832484D02*
X16082729Y-10822960D01*
X16082729Y-10822960D02*
X16073206Y-10813436D01*
X16368444Y-10632484D02*
X16330348Y-10632484D01*
X16330348Y-10632484D02*
X16311301Y-10642008D01*
X16311301Y-10642008D02*
X16301777Y-10651531D01*
X16301777Y-10651531D02*
X16282729Y-10680103D01*
X16282729Y-10680103D02*
X16273206Y-10718198D01*
X16273206Y-10718198D02*
X16273206Y-10794389D01*
X16273206Y-10794389D02*
X16282729Y-10813436D01*
X16282729Y-10813436D02*
X16292253Y-10822960D01*
X16292253Y-10822960D02*
X16311301Y-10832484D01*
X16311301Y-10832484D02*
X16349396Y-10832484D01*
X16349396Y-10832484D02*
X16368444Y-10822960D01*
X16368444Y-10822960D02*
X16377968Y-10813436D01*
X16377968Y-10813436D02*
X16387491Y-10794389D01*
X16387491Y-10794389D02*
X16387491Y-10746770D01*
X16387491Y-10746770D02*
X16377968Y-10727722D01*
X16377968Y-10727722D02*
X16368444Y-10718198D01*
X16368444Y-10718198D02*
X16349396Y-10708674D01*
X16349396Y-10708674D02*
X16311301Y-10708674D01*
X16311301Y-10708674D02*
X16292253Y-10718198D01*
X16292253Y-10718198D02*
X16282729Y-10727722D01*
X16282729Y-10727722D02*
X16273206Y-10746770D01*
X16625587Y-10832484D02*
X16625587Y-10632484D01*
X16711301Y-10832484D02*
X16711301Y-10727722D01*
X16711301Y-10727722D02*
X16701777Y-10708674D01*
X16701777Y-10708674D02*
X16682730Y-10699150D01*
X16682730Y-10699150D02*
X16654158Y-10699150D01*
X16654158Y-10699150D02*
X16635110Y-10708674D01*
X16635110Y-10708674D02*
X16625587Y-10718198D01*
X16835111Y-10832484D02*
X16816063Y-10822960D01*
X16816063Y-10822960D02*
X16806539Y-10813436D01*
X16806539Y-10813436D02*
X16797015Y-10794389D01*
X16797015Y-10794389D02*
X16797015Y-10737246D01*
X16797015Y-10737246D02*
X16806539Y-10718198D01*
X16806539Y-10718198D02*
X16816063Y-10708674D01*
X16816063Y-10708674D02*
X16835111Y-10699150D01*
X16835111Y-10699150D02*
X16863682Y-10699150D01*
X16863682Y-10699150D02*
X16882730Y-10708674D01*
X16882730Y-10708674D02*
X16892253Y-10718198D01*
X16892253Y-10718198D02*
X16901777Y-10737246D01*
X16901777Y-10737246D02*
X16901777Y-10794389D01*
X16901777Y-10794389D02*
X16892253Y-10813436D01*
X16892253Y-10813436D02*
X16882730Y-10822960D01*
X16882730Y-10822960D02*
X16863682Y-10832484D01*
X16863682Y-10832484D02*
X16835111Y-10832484D01*
X17016063Y-10832484D02*
X16997015Y-10822960D01*
X16997015Y-10822960D02*
X16987492Y-10803912D01*
X16987492Y-10803912D02*
X16987492Y-10632484D01*
X17168444Y-10822960D02*
X17149396Y-10832484D01*
X17149396Y-10832484D02*
X17111301Y-10832484D01*
X17111301Y-10832484D02*
X17092253Y-10822960D01*
X17092253Y-10822960D02*
X17082730Y-10803912D01*
X17082730Y-10803912D02*
X17082730Y-10727722D01*
X17082730Y-10727722D02*
X17092253Y-10708674D01*
X17092253Y-10708674D02*
X17111301Y-10699150D01*
X17111301Y-10699150D02*
X17149396Y-10699150D01*
X17149396Y-10699150D02*
X17168444Y-10708674D01*
X17168444Y-10708674D02*
X17177968Y-10727722D01*
X17177968Y-10727722D02*
X17177968Y-10746770D01*
X17177968Y-10746770D02*
X17082730Y-10765817D01*
X17254158Y-10822960D02*
X17273206Y-10832484D01*
X17273206Y-10832484D02*
X17311301Y-10832484D01*
X17311301Y-10832484D02*
X17330349Y-10822960D01*
X17330349Y-10822960D02*
X17339873Y-10803912D01*
X17339873Y-10803912D02*
X17339873Y-10794389D01*
X17339873Y-10794389D02*
X17330349Y-10775341D01*
X17330349Y-10775341D02*
X17311301Y-10765817D01*
X17311301Y-10765817D02*
X17282730Y-10765817D01*
X17282730Y-10765817D02*
X17263682Y-10756293D01*
X17263682Y-10756293D02*
X17254158Y-10737246D01*
X17254158Y-10737246D02*
X17254158Y-10727722D01*
X17254158Y-10727722D02*
X17263682Y-10708674D01*
X17263682Y-10708674D02*
X17282730Y-10699150D01*
X17282730Y-10699150D02*
X17311301Y-10699150D01*
X17311301Y-10699150D02*
X17330349Y-10708674D01*
X17406539Y-10908674D02*
X17416063Y-10899150D01*
X17416063Y-10899150D02*
X17435111Y-10870579D01*
X17435111Y-10870579D02*
X17444634Y-10851531D01*
X17444634Y-10851531D02*
X17454158Y-10822960D01*
X17454158Y-10822960D02*
X17463682Y-10775341D01*
X17463682Y-10775341D02*
X17463682Y-10737246D01*
X17463682Y-10737246D02*
X17454158Y-10689627D01*
X17454158Y-10689627D02*
X17444634Y-10661055D01*
X17444634Y-10661055D02*
X17435111Y-10642008D01*
X17435111Y-10642008D02*
X17416063Y-10613436D01*
X17416063Y-10613436D02*
X17406539Y-10603912D01*
D12*
X12441000Y-11005000D02*
G75*
G02*
X12311000Y-11005000I-65000J0D01*
G01*
X12311000Y-11005000D02*
G75*
G02*
X12441000Y-11005000I65000J0D01*
G01*
D11*
X12806539Y-11096484D02*
X12692253Y-11096484D01*
X12749396Y-11096484D02*
X12749396Y-10896484D01*
X12749396Y-10896484D02*
X12730348Y-10925055D01*
X12730348Y-10925055D02*
X12711301Y-10944103D01*
X12711301Y-10944103D02*
X12692253Y-10953627D01*
X12892253Y-11077436D02*
X12901777Y-11086960D01*
X12901777Y-11086960D02*
X12892253Y-11096484D01*
X12892253Y-11096484D02*
X12882729Y-11086960D01*
X12882729Y-11086960D02*
X12892253Y-11077436D01*
X12892253Y-11077436D02*
X12892253Y-11096484D01*
X12968443Y-10896484D02*
X13092253Y-10896484D01*
X13092253Y-10896484D02*
X13025586Y-10972674D01*
X13025586Y-10972674D02*
X13054158Y-10972674D01*
X13054158Y-10972674D02*
X13073205Y-10982198D01*
X13073205Y-10982198D02*
X13082729Y-10991722D01*
X13082729Y-10991722D02*
X13092253Y-11010770D01*
X13092253Y-11010770D02*
X13092253Y-11058389D01*
X13092253Y-11058389D02*
X13082729Y-11077436D01*
X13082729Y-11077436D02*
X13073205Y-11086960D01*
X13073205Y-11086960D02*
X13054158Y-11096484D01*
X13054158Y-11096484D02*
X12997015Y-11096484D01*
X12997015Y-11096484D02*
X12977967Y-11086960D01*
X12977967Y-11086960D02*
X12968443Y-11077436D01*
X13216062Y-10896484D02*
X13235110Y-10896484D01*
X13235110Y-10896484D02*
X13254158Y-10906008D01*
X13254158Y-10906008D02*
X13263682Y-10915531D01*
X13263682Y-10915531D02*
X13273205Y-10934579D01*
X13273205Y-10934579D02*
X13282729Y-10972674D01*
X13282729Y-10972674D02*
X13282729Y-11020293D01*
X13282729Y-11020293D02*
X13273205Y-11058389D01*
X13273205Y-11058389D02*
X13263682Y-11077436D01*
X13263682Y-11077436D02*
X13254158Y-11086960D01*
X13254158Y-11086960D02*
X13235110Y-11096484D01*
X13235110Y-11096484D02*
X13216062Y-11096484D01*
X13216062Y-11096484D02*
X13197015Y-11086960D01*
X13197015Y-11086960D02*
X13187491Y-11077436D01*
X13187491Y-11077436D02*
X13177967Y-11058389D01*
X13177967Y-11058389D02*
X13168443Y-11020293D01*
X13168443Y-11020293D02*
X13168443Y-10972674D01*
X13168443Y-10972674D02*
X13177967Y-10934579D01*
X13177967Y-10934579D02*
X13187491Y-10915531D01*
X13187491Y-10915531D02*
X13197015Y-10906008D01*
X13197015Y-10906008D02*
X13216062Y-10896484D01*
X13406539Y-10896484D02*
X13425586Y-10896484D01*
X13425586Y-10896484D02*
X13444634Y-10906008D01*
X13444634Y-10906008D02*
X13454158Y-10915531D01*
X13454158Y-10915531D02*
X13463682Y-10934579D01*
X13463682Y-10934579D02*
X13473205Y-10972674D01*
X13473205Y-10972674D02*
X13473205Y-11020293D01*
X13473205Y-11020293D02*
X13463682Y-11058389D01*
X13463682Y-11058389D02*
X13454158Y-11077436D01*
X13454158Y-11077436D02*
X13444634Y-11086960D01*
X13444634Y-11086960D02*
X13425586Y-11096484D01*
X13425586Y-11096484D02*
X13406539Y-11096484D01*
X13406539Y-11096484D02*
X13387491Y-11086960D01*
X13387491Y-11086960D02*
X13377967Y-11077436D01*
X13377967Y-11077436D02*
X13368443Y-11058389D01*
X13368443Y-11058389D02*
X13358920Y-11020293D01*
X13358920Y-11020293D02*
X13358920Y-10972674D01*
X13358920Y-10972674D02*
X13368443Y-10934579D01*
X13368443Y-10934579D02*
X13377967Y-10915531D01*
X13377967Y-10915531D02*
X13387491Y-10906008D01*
X13387491Y-10906008D02*
X13406539Y-10896484D01*
X13558920Y-11096484D02*
X13558920Y-10963150D01*
X13558920Y-10982198D02*
X13568443Y-10972674D01*
X13568443Y-10972674D02*
X13587491Y-10963150D01*
X13587491Y-10963150D02*
X13616063Y-10963150D01*
X13616063Y-10963150D02*
X13635110Y-10972674D01*
X13635110Y-10972674D02*
X13644634Y-10991722D01*
X13644634Y-10991722D02*
X13644634Y-11096484D01*
X13644634Y-10991722D02*
X13654158Y-10972674D01*
X13654158Y-10972674D02*
X13673205Y-10963150D01*
X13673205Y-10963150D02*
X13701777Y-10963150D01*
X13701777Y-10963150D02*
X13720824Y-10972674D01*
X13720824Y-10972674D02*
X13730348Y-10991722D01*
X13730348Y-10991722D02*
X13730348Y-11096484D01*
X13825586Y-11096484D02*
X13825586Y-10963150D01*
X13825586Y-10982198D02*
X13835110Y-10972674D01*
X13835110Y-10972674D02*
X13854158Y-10963150D01*
X13854158Y-10963150D02*
X13882729Y-10963150D01*
X13882729Y-10963150D02*
X13901777Y-10972674D01*
X13901777Y-10972674D02*
X13911301Y-10991722D01*
X13911301Y-10991722D02*
X13911301Y-11096484D01*
X13911301Y-10991722D02*
X13920824Y-10972674D01*
X13920824Y-10972674D02*
X13939872Y-10963150D01*
X13939872Y-10963150D02*
X13968443Y-10963150D01*
X13968443Y-10963150D02*
X13987491Y-10972674D01*
X13987491Y-10972674D02*
X13997015Y-10991722D01*
X13997015Y-10991722D02*
X13997015Y-11096484D01*
X14387491Y-10886960D02*
X14216063Y-11144103D01*
X14644634Y-10896484D02*
X14663682Y-10896484D01*
X14663682Y-10896484D02*
X14682729Y-10906008D01*
X14682729Y-10906008D02*
X14692253Y-10915531D01*
X14692253Y-10915531D02*
X14701777Y-10934579D01*
X14701777Y-10934579D02*
X14711301Y-10972674D01*
X14711301Y-10972674D02*
X14711301Y-11020293D01*
X14711301Y-11020293D02*
X14701777Y-11058389D01*
X14701777Y-11058389D02*
X14692253Y-11077436D01*
X14692253Y-11077436D02*
X14682729Y-11086960D01*
X14682729Y-11086960D02*
X14663682Y-11096484D01*
X14663682Y-11096484D02*
X14644634Y-11096484D01*
X14644634Y-11096484D02*
X14625586Y-11086960D01*
X14625586Y-11086960D02*
X14616063Y-11077436D01*
X14616063Y-11077436D02*
X14606539Y-11058389D01*
X14606539Y-11058389D02*
X14597015Y-11020293D01*
X14597015Y-11020293D02*
X14597015Y-10972674D01*
X14597015Y-10972674D02*
X14606539Y-10934579D01*
X14606539Y-10934579D02*
X14616063Y-10915531D01*
X14616063Y-10915531D02*
X14625586Y-10906008D01*
X14625586Y-10906008D02*
X14644634Y-10896484D01*
X14797015Y-11077436D02*
X14806539Y-11086960D01*
X14806539Y-11086960D02*
X14797015Y-11096484D01*
X14797015Y-11096484D02*
X14787491Y-11086960D01*
X14787491Y-11086960D02*
X14797015Y-11077436D01*
X14797015Y-11077436D02*
X14797015Y-11096484D01*
X14930348Y-10896484D02*
X14949396Y-10896484D01*
X14949396Y-10896484D02*
X14968444Y-10906008D01*
X14968444Y-10906008D02*
X14977967Y-10915531D01*
X14977967Y-10915531D02*
X14987491Y-10934579D01*
X14987491Y-10934579D02*
X14997015Y-10972674D01*
X14997015Y-10972674D02*
X14997015Y-11020293D01*
X14997015Y-11020293D02*
X14987491Y-11058389D01*
X14987491Y-11058389D02*
X14977967Y-11077436D01*
X14977967Y-11077436D02*
X14968444Y-11086960D01*
X14968444Y-11086960D02*
X14949396Y-11096484D01*
X14949396Y-11096484D02*
X14930348Y-11096484D01*
X14930348Y-11096484D02*
X14911301Y-11086960D01*
X14911301Y-11086960D02*
X14901777Y-11077436D01*
X14901777Y-11077436D02*
X14892253Y-11058389D01*
X14892253Y-11058389D02*
X14882729Y-11020293D01*
X14882729Y-11020293D02*
X14882729Y-10972674D01*
X14882729Y-10972674D02*
X14892253Y-10934579D01*
X14892253Y-10934579D02*
X14901777Y-10915531D01*
X14901777Y-10915531D02*
X14911301Y-10906008D01*
X14911301Y-10906008D02*
X14930348Y-10896484D01*
X15177967Y-10896484D02*
X15082729Y-10896484D01*
X15082729Y-10896484D02*
X15073206Y-10991722D01*
X15073206Y-10991722D02*
X15082729Y-10982198D01*
X15082729Y-10982198D02*
X15101777Y-10972674D01*
X15101777Y-10972674D02*
X15149396Y-10972674D01*
X15149396Y-10972674D02*
X15168444Y-10982198D01*
X15168444Y-10982198D02*
X15177967Y-10991722D01*
X15177967Y-10991722D02*
X15187491Y-11010770D01*
X15187491Y-11010770D02*
X15187491Y-11058389D01*
X15187491Y-11058389D02*
X15177967Y-11077436D01*
X15177967Y-11077436D02*
X15168444Y-11086960D01*
X15168444Y-11086960D02*
X15149396Y-11096484D01*
X15149396Y-11096484D02*
X15101777Y-11096484D01*
X15101777Y-11096484D02*
X15082729Y-11086960D01*
X15082729Y-11086960D02*
X15073206Y-11077436D01*
X15377967Y-11096484D02*
X15263682Y-11096484D01*
X15320825Y-11096484D02*
X15320825Y-10896484D01*
X15320825Y-10896484D02*
X15301777Y-10925055D01*
X15301777Y-10925055D02*
X15282729Y-10944103D01*
X15282729Y-10944103D02*
X15263682Y-10953627D01*
X15454158Y-10915531D02*
X15463682Y-10906008D01*
X15463682Y-10906008D02*
X15482729Y-10896484D01*
X15482729Y-10896484D02*
X15530348Y-10896484D01*
X15530348Y-10896484D02*
X15549396Y-10906008D01*
X15549396Y-10906008D02*
X15558920Y-10915531D01*
X15558920Y-10915531D02*
X15568444Y-10934579D01*
X15568444Y-10934579D02*
X15568444Y-10953627D01*
X15568444Y-10953627D02*
X15558920Y-10982198D01*
X15558920Y-10982198D02*
X15444634Y-11096484D01*
X15444634Y-11096484D02*
X15568444Y-11096484D01*
X15644634Y-10896484D02*
X15644634Y-10934579D01*
X15720825Y-10896484D02*
X15720825Y-10934579D01*
X16016063Y-11172674D02*
X16006539Y-11163150D01*
X16006539Y-11163150D02*
X15987491Y-11134579D01*
X15987491Y-11134579D02*
X15977968Y-11115531D01*
X15977968Y-11115531D02*
X15968444Y-11086960D01*
X15968444Y-11086960D02*
X15958920Y-11039341D01*
X15958920Y-11039341D02*
X15958920Y-11001246D01*
X15958920Y-11001246D02*
X15968444Y-10953627D01*
X15968444Y-10953627D02*
X15977968Y-10925055D01*
X15977968Y-10925055D02*
X15987491Y-10906008D01*
X15987491Y-10906008D02*
X16006539Y-10877436D01*
X16006539Y-10877436D02*
X16016063Y-10867912D01*
X16177968Y-10963150D02*
X16177968Y-11096484D01*
X16130348Y-10886960D02*
X16082729Y-11029817D01*
X16082729Y-11029817D02*
X16206539Y-11029817D01*
X16435110Y-11096484D02*
X16435110Y-10896484D01*
X16520825Y-11096484D02*
X16520825Y-10991722D01*
X16520825Y-10991722D02*
X16511301Y-10972674D01*
X16511301Y-10972674D02*
X16492253Y-10963150D01*
X16492253Y-10963150D02*
X16463682Y-10963150D01*
X16463682Y-10963150D02*
X16444634Y-10972674D01*
X16444634Y-10972674D02*
X16435110Y-10982198D01*
X16644634Y-11096484D02*
X16625587Y-11086960D01*
X16625587Y-11086960D02*
X16616063Y-11077436D01*
X16616063Y-11077436D02*
X16606539Y-11058389D01*
X16606539Y-11058389D02*
X16606539Y-11001246D01*
X16606539Y-11001246D02*
X16616063Y-10982198D01*
X16616063Y-10982198D02*
X16625587Y-10972674D01*
X16625587Y-10972674D02*
X16644634Y-10963150D01*
X16644634Y-10963150D02*
X16673206Y-10963150D01*
X16673206Y-10963150D02*
X16692253Y-10972674D01*
X16692253Y-10972674D02*
X16701777Y-10982198D01*
X16701777Y-10982198D02*
X16711301Y-11001246D01*
X16711301Y-11001246D02*
X16711301Y-11058389D01*
X16711301Y-11058389D02*
X16701777Y-11077436D01*
X16701777Y-11077436D02*
X16692253Y-11086960D01*
X16692253Y-11086960D02*
X16673206Y-11096484D01*
X16673206Y-11096484D02*
X16644634Y-11096484D01*
X16825587Y-11096484D02*
X16806539Y-11086960D01*
X16806539Y-11086960D02*
X16797015Y-11067912D01*
X16797015Y-11067912D02*
X16797015Y-10896484D01*
X16977968Y-11086960D02*
X16958920Y-11096484D01*
X16958920Y-11096484D02*
X16920825Y-11096484D01*
X16920825Y-11096484D02*
X16901777Y-11086960D01*
X16901777Y-11086960D02*
X16892253Y-11067912D01*
X16892253Y-11067912D02*
X16892253Y-10991722D01*
X16892253Y-10991722D02*
X16901777Y-10972674D01*
X16901777Y-10972674D02*
X16920825Y-10963150D01*
X16920825Y-10963150D02*
X16958920Y-10963150D01*
X16958920Y-10963150D02*
X16977968Y-10972674D01*
X16977968Y-10972674D02*
X16987492Y-10991722D01*
X16987492Y-10991722D02*
X16987492Y-11010770D01*
X16987492Y-11010770D02*
X16892253Y-11029817D01*
X17063682Y-11086960D02*
X17082730Y-11096484D01*
X17082730Y-11096484D02*
X17120825Y-11096484D01*
X17120825Y-11096484D02*
X17139873Y-11086960D01*
X17139873Y-11086960D02*
X17149396Y-11067912D01*
X17149396Y-11067912D02*
X17149396Y-11058389D01*
X17149396Y-11058389D02*
X17139873Y-11039341D01*
X17139873Y-11039341D02*
X17120825Y-11029817D01*
X17120825Y-11029817D02*
X17092253Y-11029817D01*
X17092253Y-11029817D02*
X17073206Y-11020293D01*
X17073206Y-11020293D02*
X17063682Y-11001246D01*
X17063682Y-11001246D02*
X17063682Y-10991722D01*
X17063682Y-10991722D02*
X17073206Y-10972674D01*
X17073206Y-10972674D02*
X17092253Y-10963150D01*
X17092253Y-10963150D02*
X17120825Y-10963150D01*
X17120825Y-10963150D02*
X17139873Y-10972674D01*
X17216063Y-11172674D02*
X17225587Y-11163150D01*
X17225587Y-11163150D02*
X17244634Y-11134579D01*
X17244634Y-11134579D02*
X17254158Y-11115531D01*
X17254158Y-11115531D02*
X17263682Y-11086960D01*
X17263682Y-11086960D02*
X17273206Y-11039341D01*
X17273206Y-11039341D02*
X17273206Y-11001246D01*
X17273206Y-11001246D02*
X17263682Y-10953627D01*
X17263682Y-10953627D02*
X17254158Y-10925055D01*
X17254158Y-10925055D02*
X17244634Y-10906008D01*
X17244634Y-10906008D02*
X17225587Y-10877436D01*
X17225587Y-10877436D02*
X17216063Y-10867912D01*
M02*
